<svg width="24" height="24" fill="none" xmlns="http://www.w3.org/2000/svg"><path fill-rule="evenodd" clip-rule="evenodd" d="M11.999 8a.25.25 0 1 0 .002.5A.25.25 0 0 0 12 8Z" fill="#D73035"/><path d="M11.999 8a.25.25 0 1 0 .002.5A.25.25 0 0 0 12 8" stroke="#D73035" stroke-width="1.5" stroke-linecap="round" stroke-linejoin="round"/><path d="M12 12v5m0 4v0a9 9 0 0 1-9-9v0a9 9 0 0 1 9-9v0a9 9 0 0 1 9 9v0a9 9 0 0 1-9 9Z" stroke="#D73035" stroke-width="1.5" stroke-linecap="round" stroke-linejoin="round"/></svg>
